# xmcd
#
# Track frame offsets:
#	150
#	2525
#	7092
#	11615
#	18732
#	23560
#	25920
#	30642
#	35732
#	40407
#	42812
#	47507
#	52107
#	58812
#	63445
#	70267
#	74942
#	77372
#	82047
#	89457
#	104740
#	117607
#	120085
#	135262
#	150580
#	169552
#	185677
#	203980
#	223320
#
# Disc length: 3177 seconds
#
# Revision: 1
# Processed by: cddbd v1.5.1PL0 Copyright (c) Steve Scherf et al.
# Submitted via: CDex 1.50Beta5
#
DISCID=970c671d
DTITLE=ひばり児童合唱団 - コマソンマニア
DYEAR=2000
DGENRE=Pop
TTITLE0=ひばり児童合唱団/カステラ一番
TTITLE1=雪印アイスクリームのうた
TTITLE2=ミッキー・カーチス/明星即席ラーメンのうた
TTITLE3=どこまでも行こう
TTITLE4=ビリー・バンバン/小さな瞳
TTITLE5=雪印ネオソフトのうた
TTITLE6=天地総子/パンシロンの歌
TTITLE7=スリー・グレイセス/明治チョコレート・テーマ
TTITLE8=デューク・エイセス/もくせいの花
TTITLE9=ハニー・ナイツ/ふりむかないで
TTITLE10=雪印フレーバーランド・アイスクリームのうた
TTITLE11=ヒデ夕木/日立の樹
TTITLE12=サントリー・ローヤル90
TTITLE13=雪印ミネラル牛乳
TTITLE14=弘田三枝子/レナウンワンサカ娘
TTITLE15=スリー・グレイセス/セキスイハウスの唄
TTITLE16=小林亜星/ブルーダイヤ
TTITLE17=サイラズ・モズレー/人間みな兄弟
TTITLE18=人間みな兄弟
TTITLE19=加藤登紀子/酒は大関
TTITLE20=はしだのりひこ/赤いキッス
TTITLE21=徳井優/引越しのサカイ
TTITLE22=小林旭/赤いトラクター
TTITLE23=三好鉄生/すごい男の唄
TTITLE24=チータ/CCレモン
TTITLE25=マークHAMA/夜がくる
TTITLE26=イルカ/まあるいいのち
TTITLE27=南こうせつ/夢一夜
TTITLE28=柳ジョージ/ALWAYS
EXTD=
EXTT0=
EXTT1=
EXTT2=
EXTT3=
EXTT4=
EXTT5=
EXTT6=
EXTT7=
EXTT8=
EXTT9=
EXTT10=
EXTT11=
EXTT12=
EXTT13=
EXTT14=
EXTT15=
EXTT16=
EXTT17=
EXTT18=
EXTT19=
EXTT20=
EXTT21=
EXTT22=
EXTT23=
EXTT24=
EXTT25=
EXTT26=
EXTT27=
EXTT28=
PLAYORDER=
